<svg width="16" height="12" viewBox="0 0 16 12" fill="none" xmlns="http://www.w3.org/2000/svg">
<path d="M7.99961 11.1752C3.04961 11.1752 0.599609 6.45022 0.499609 6.25022C0.424609 6.10022 0.424609 5.90022 0.499609 5.75022C0.599609 5.55022 3.04961 0.85022 7.99961 0.85022C12.9496 0.85022 15.3996 5.55022 15.4996 5.75022C15.5746 5.90022 15.5746 6.10022 15.4996 6.25022C15.3996 6.45022 12.9496 11.1752 7.99961 11.1752ZM1.64961 6.00022C2.19961 6.92522 4.34961 10.0502 7.99961 10.0502C11.6496 10.0502 13.7996 6.92522 14.3496 6.00022C13.7996 5.07522 11.6496 1.95022 7.99961 1.95022C4.34961 1.95022 2.19961 5.07522 1.64961 6.00022Z" fill="#6A6A6A"/>
<path d="M8 8.125C6.825 8.125 5.875 7.175 5.875 6C5.875 4.825 6.825 3.875 8 3.875C9.175 3.875 10.125 4.825 10.125 6C10.125 7.175 9.175 8.125 8 8.125ZM8 5C7.45 5 7 5.45 7 6C7 6.55 7.45 7 8 7C8.55 7 9 6.55 9 6C9 5.45 8.55 5 8 5Z" fill="#6A6A6A"/>
</svg>
