<svg width="24" height="24" viewBox="0 0 24 24" fill="none" xmlns="http://www.w3.org/2000/svg">
<path d="M15.5408 18.7228C15.6128 18.7948 15.5835 18.9208 15.486 18.9523C9.711 20.8018 3.462 17.825 1.5405 12.2458C1.4865 12.0883 1.4865 11.9128 1.5405 11.7545C2.09775 10.1368 3.033 8.71927 4.2315 7.57477C4.27725 7.53127 4.35 7.53276 4.39425 7.57701L7.62075 10.8035C7.64325 10.826 7.6515 10.8575 7.644 10.8883C6.807 14.147 9.855 17.1845 13.101 16.3588C13.1377 16.349 13.1722 16.3558 13.1993 16.3828C13.4677 16.6505 15.033 18.215 15.5408 18.7228Z" fill="#6A6A6A"/>
<path d="M18.5099 17.4494C20.3144 16.1804 21.7207 14.3902 22.4594 12.2437C22.5134 12.0862 22.5134 11.9137 22.4594 11.7562C20.9654 7.41594 16.7624 4.49994 11.9999 4.49994C10.1407 4.49994 8.36919 4.94769 6.80919 5.74869L2.78019 1.71969C2.48694 1.42644 2.01294 1.42644 1.71969 1.71969C1.42644 2.01294 1.42644 2.48694 1.71969 2.78019L21.2197 22.2802C21.5129 22.5734 21.9869 22.5734 22.2802 22.2802C22.5734 21.9869 22.5734 21.5129 22.2802 21.2197L18.5099 17.4494ZM11.9999 7.49994C14.4817 7.49994 16.4999 9.51819 16.4999 11.9999C16.4999 12.9704 16.1879 13.8674 15.6637 14.6032L9.39669 8.33619C10.1324 7.81194 11.0294 7.49994 11.9999 7.49994Z" fill="#6A6A6A"/>
</svg>
